<svg width="154" height="93" viewBox="0 0 154 93" fill="none" xmlns="http://www.w3.org/2000/svg">
<rect width="154" height="93" fill="#95C9FA"/>
<path d="M62.1918 55V37.5455H72.7259V39.4205H64.3054V44.875H68.7372C69.9872 44.875 71.0412 45.0795 71.8991 45.4886C72.7628 45.8977 73.4162 46.4744 73.8594 47.2188C74.3082 47.9631 74.5327 48.8409 74.5327 49.8523C74.5327 50.8636 74.3082 51.7557 73.8594 52.5284C73.4162 53.3011 72.7628 53.9062 71.8991 54.3438C71.0412 54.7812 69.9872 55 68.7372 55H62.1918ZM64.3054 53.1591H68.7372C69.5327 53.1591 70.206 53 70.7571 52.6818C71.3139 52.358 71.7344 51.9432 72.0185 51.4375C72.3082 50.9261 72.4531 50.3864 72.4531 49.8182C72.4531 48.983 72.1321 48.2642 71.4901 47.6619C70.848 47.054 69.9304 46.75 68.7372 46.75H64.3054V53.1591ZM76.5121 59.2273V53.125H77.6371C78.0234 52.7727 78.3871 52.2756 78.728 51.6335C79.0746 50.9858 79.3672 50.1222 79.6058 49.0426C79.8501 47.9574 80.0121 46.5795 80.0916 44.9091L80.4666 37.5455H90.8303V53.125H92.8416V59.1932H90.8303V55H78.5234V59.2273H76.5121ZM80.1598 53.125H88.8189V39.4205H82.3757L82.103 44.9091C82.0348 46.1818 81.9155 47.3352 81.745 48.3693C81.5746 49.3977 81.3558 50.3097 81.0888 51.1051C80.8217 51.8949 80.5121 52.5682 80.1598 53.125Z" fill="black"/>
</svg>
