<svg width="154" height="93" viewBox="0 0 154 93" fill="none" xmlns="http://www.w3.org/2000/svg">
<rect width="154" height="93" fill="#95C9FA"/>
<path d="M52.7006 55H50.4847L56.8938 37.5455H59.0756L65.4847 55H63.2688L58.0529 40.3068H57.9165L52.7006 55ZM53.5188 48.1818H62.4506V50.0568H53.5188V48.1818ZM76.6921 47.5341V49.4091H69.4648V47.5341H76.6921ZM69.9421 41.9091V55H67.9308V41.9091H69.9421ZM78.2262 41.9091V55H76.2148V41.9091H78.2262ZM89.979 41.9091V43.7841H83.9109V55H81.8995V41.9091H89.979ZM90.6545 55V53.125H91.1317C91.5238 53.125 91.8505 53.0483 92.1119 52.8949C92.3732 52.7358 92.5835 52.4602 92.7425 52.0682C92.9073 51.6705 93.0323 51.1193 93.1175 50.4148C93.2085 49.7045 93.2738 48.8011 93.3136 47.7045L93.5522 41.9091H102.279V55H100.268V43.7841H95.4613L95.2567 48.4545C95.2113 49.5284 95.1147 50.4744 94.967 51.2926C94.8249 52.1051 94.6062 52.7869 94.3107 53.3381C94.021 53.8892 93.6346 54.304 93.1516 54.5824C92.6687 54.8608 92.0636 55 91.3363 55H90.6545Z" fill="black"/>
</svg>
